<svg width="24" height="24" viewBox="0 0 24 24" fill="none" xmlns="http://www.w3.org/2000/svg">
<g clip-path="url(#clip0_24_536)">
<path d="M13.0154 19.7584L13.0138 19.7598C12.4448 20.2764 11.5676 20.2763 10.9987 19.7522L10.9962 19.75L10.8862 19.65L10.8854 19.6492C8.2499 17.2648 6.11396 15.3288 4.64656 13.5098C3.18645 11.6999 2.44042 10.0679 2.49961 8.29722C2.55432 6.751 3.34751 5.27058 4.6213 4.40331L4.62158 4.40313C7.01961 2.76811 9.99982 3.51873 11.6198 5.4148L11.9999 5.85975L12.3801 5.4148C14.001 3.51752 16.9807 2.75936 19.3772 4.4024L19.3785 4.40331C20.6524 5.27066 21.4456 6.75128 21.5002 8.29765L21.5002 8.29804C21.5641 10.068 20.8186 11.6996 19.3569 13.5124C17.8941 15.3266 15.7673 17.259 13.1464 19.6402L13.1154 19.6684L13.1137 19.6699L13.0154 19.7584Z" fill="#121720" stroke="black"/>
</g>
<defs>
<clipPath id="clip0_24_536">
<rect width="24" height="24" fill="white"/>
</clipPath>
</defs>
</svg>
