<svg width="24" height="24" viewBox="0 0 24 24" fill="none" xmlns="http://www.w3.org/2000/svg">
<g clip-path="url(#clip0_24_536)">
<path d="M12.6809 19.3867L12.6777 19.3896C12.2997 19.7328 11.7153 19.7325 11.3374 19.3845L11.3374 19.3845L11.3326 19.3801L11.2226 19.2801L11.2208 19.2785C8.57488 16.8845 6.47301 14.9775 5.03571 13.1959C3.613 11.4323 2.94592 9.9158 2.99932 8.31436C3.04876 6.92195 3.76513 5.59113 4.9027 4.81661L4.90325 4.81624C7.0593 3.3462 9.75972 4.00745 11.2396 5.73959L11.9999 6.62948L12.7602 5.73959C14.2422 4.00502 16.9415 3.3387 19.0944 4.81479L19.0971 4.81661C20.2349 5.5913 20.9514 6.92255 21.0005 8.31529L21.0006 8.31607C21.0583 9.91602 20.3924 11.4317 18.9677 13.1986C17.5293 14.9825 15.426 16.8935 12.7807 19.2969L12.7774 19.2999L12.6809 19.3867Z" fill="#121720" stroke="black" stroke-width="2"/>
</g>
<defs>
<clipPath id="clip0_24_536">
<rect width="24" height="24" fill="white"/>
</clipPath>
</defs>
</svg>
