<svg width="48" height="48" viewBox="0 0 48 48" fill="none" xmlns="http://www.w3.org/2000/svg">
<rect width="48" height="48" rx="12" fill="#7984C0"/>
<path d="M28.1276 15H19.8724C17.1857 15 15 17.1857 15 19.8724V28.1277C15 30.8143 17.1857 33 19.8724 33H28.1277C30.8143 33 33 30.8143 33 28.1277V19.8724C33 17.1857 30.8143 15 28.1276 15V15ZM24 28.9217C21.2861 28.9217 19.0783 26.7139 19.0783 24C19.0783 21.2861 21.2861 19.0783 24 19.0783C26.7139 19.0783 28.9217 21.2861 28.9217 24C28.9217 26.7139 26.7139 28.9217 24 28.9217ZM29.0394 20.239C28.2374 20.239 27.5851 19.5867 27.5851 18.7847C27.5851 17.9827 28.2374 17.3302 29.0394 17.3302C29.8414 17.3302 30.4939 17.9827 30.4939 18.7847C30.4939 19.5867 29.8414 20.239 29.0394 20.239Z" fill="white"/>
<path d="M23.9998 20.1335C21.8679 20.1335 20.1333 21.868 20.1333 24C20.1333 26.1319 21.8679 27.8665 23.9998 27.8665C26.1318 27.8665 27.8663 26.1319 27.8663 24C27.8663 21.868 26.1318 20.1335 23.9998 20.1335Z" fill="white"/>
</svg>
