<svg width="59" height="48" viewBox="0 0 59 48" fill="none" xmlns="http://www.w3.org/2000/svg">
<path d="M14.4925 41.9577V39.5663C14.5065 39.3651 14.4775 39.1633 14.4073 38.9743C14.3372 38.7852 14.2276 38.6133 14.0858 38.47C13.944 38.3267 13.7732 38.2152 13.5849 38.1431C13.3967 38.071 13.1952 38.0398 12.9939 38.0517C12.7305 38.0346 12.4673 38.0884 12.2317 38.2075C11.9962 38.3267 11.7969 38.5069 11.6547 38.7293C11.5251 38.5135 11.3397 38.3367 11.1181 38.2175C10.8964 38.0982 10.6467 38.041 10.3952 38.0517C10.176 38.0407 9.95777 38.0872 9.76203 38.1864C9.56629 38.2857 9.39987 38.4343 9.27925 38.6177V38.1474H8.4502V41.9577H9.28718V39.8453C9.26908 39.7149 9.28008 39.5822 9.31938 39.4566C9.35868 39.331 9.4253 39.2156 9.51447 39.1189C9.60364 39.0221 9.71313 38.9462 9.83509 38.8968C9.95705 38.8474 10.0885 38.8255 10.2198 38.8329C10.7699 38.8329 11.0489 39.1916 11.0489 39.8373V41.9577H11.8859V39.8453C11.8691 39.7151 11.8811 39.583 11.9209 39.458C11.9607 39.333 12.0274 39.2182 12.1163 39.1217C12.2051 39.0252 12.3141 38.9494 12.4354 38.8995C12.5567 38.8496 12.6875 38.8269 12.8185 38.8329C13.3845 38.8329 13.6555 39.1916 13.6555 39.8373V41.9577H14.4925ZM26.8799 38.1474H25.5248V36.9916H24.6878V38.1474H23.9146V38.9047H24.6878V40.6424C24.6878 41.5272 25.0306 42.0534 26.0111 42.0534C26.3773 42.0545 26.7365 41.9522 27.0473 41.7584L26.8082 41.0489C26.5859 41.1816 26.3336 41.2556 26.0748 41.2642C25.6603 41.2642 25.5248 41.009 25.5248 40.6265V38.9047H26.8799V38.1474ZM33.9505 38.0517C33.7484 38.0458 33.5484 38.0945 33.3716 38.1927C33.1949 38.2909 33.0479 38.435 32.9461 38.6097V38.1474H32.1251V41.9577H32.9541V39.8213C32.9541 39.1916 33.2251 38.8409 33.7672 38.8409C33.9445 38.8385 34.1206 38.871 34.2853 38.9366L34.5404 38.1553C34.3511 38.0876 34.1516 38.0526 33.9505 38.0517ZM23.261 38.4503C22.7917 38.1713 22.2522 38.0329 21.7066 38.0517C20.742 38.0517 20.1203 38.5141 20.1203 39.2713C20.1203 39.8931 20.5826 40.2758 21.4355 40.3953L21.8261 40.4511C22.2804 40.5148 22.4957 40.6344 22.4957 40.8496C22.4957 41.1446 22.1927 41.312 21.6268 41.312C21.1716 41.3251 20.7252 41.1847 20.3594 40.9134L19.9688 41.5591C20.4517 41.8963 21.0301 42.0696 21.6189 42.0534C22.7189 42.0534 23.3566 41.5352 23.3566 40.8098C23.3566 40.1402 22.8544 39.7894 22.0254 39.6699L21.6348 39.6141C21.2761 39.5663 20.9891 39.4946 20.9891 39.2395C20.9891 38.9605 21.2601 38.7931 21.7145 38.7931C22.1318 38.7994 22.5405 38.9118 22.9023 39.1199L23.261 38.4503ZM45.4691 38.0517C45.267 38.0458 45.067 38.0945 44.8902 38.1927C44.7134 38.2909 44.5664 38.435 44.4647 38.6097V38.1474H43.6437V41.9577H44.4726V39.8213C44.4726 39.1916 44.7437 38.8409 45.2857 38.8409C45.463 38.8385 45.6391 38.871 45.8039 38.9366L46.059 38.1553C45.8697 38.0876 45.6702 38.0526 45.4691 38.0517ZM34.7875 40.0525C34.7764 40.3209 34.8217 40.5887 34.9204 40.8385C35.0191 41.0884 35.169 41.3149 35.3605 41.5033C35.5519 41.6918 35.7807 41.8381 36.0321 41.9328C36.2835 42.0276 36.552 42.0686 36.8202 42.0534C37.3179 42.0784 37.807 41.9163 38.1912 41.599L37.7927 40.9293C37.5061 41.1478 37.1566 41.268 36.7963 41.2721C36.4856 41.2533 36.1938 41.1166 35.9805 40.8899C35.7672 40.6633 35.6484 40.3638 35.6484 40.0525C35.6484 39.7413 35.7672 39.4418 35.9805 39.2151C36.1938 38.9885 36.4856 38.8518 36.7963 38.8329C37.1567 38.837 37.5061 38.9572 37.7927 39.1757L38.1912 38.5061C37.807 38.1888 37.3179 38.0267 36.8202 38.0517C36.552 38.0365 36.2836 38.0775 36.0322 38.1723C35.7808 38.267 35.552 38.4133 35.3605 38.6017C35.1691 38.7902 35.0192 39.0166 34.9205 39.2664C34.8218 39.5163 34.7765 39.784 34.7875 40.0525ZM42.5516 40.0525V38.1474H41.7226V38.6097C41.581 38.4274 41.3979 38.2816 41.1885 38.1845C40.9791 38.0874 40.7495 38.0419 40.5189 38.0517C40.0052 38.0769 39.5209 38.2987 39.1662 38.6712C38.8116 39.0437 38.6138 39.5383 38.6138 40.0526C38.6138 40.5669 38.8116 41.0615 39.1662 41.4339C39.5209 41.8064 40.0052 42.0282 40.5189 42.0534C40.7495 42.0632 40.9791 42.0177 41.1885 41.9206C41.3979 41.8235 41.5811 41.6777 41.7226 41.4953V41.9577H42.5516V40.0525ZM39.4666 40.0525C39.4795 39.8276 39.5579 39.6115 39.6921 39.4306C39.8264 39.2498 40.0106 39.1122 40.2221 39.0349C40.4336 38.9575 40.6632 38.9437 40.8824 38.9952C41.1016 39.0467 41.301 39.1613 41.4559 39.3247C41.6108 39.4882 41.7145 39.6934 41.7542 39.9151C41.7939 40.1368 41.7678 40.3652 41.6792 40.5723C41.5906 40.7793 41.4434 40.9559 41.2556 41.0803C41.0678 41.2046 40.8478 41.2713 40.6226 41.2721C40.4647 41.2743 40.3081 41.2437 40.1627 41.1823C40.0172 41.1209 39.886 41.0301 39.7775 40.9155C39.6689 40.8009 39.5852 40.6651 39.5317 40.5165C39.4782 40.368 39.456 40.21 39.4666 40.0525ZM29.4627 38.0517C28.9457 38.079 28.4593 38.3053 28.1056 38.6834C27.752 39.0614 27.5584 39.5618 27.5656 40.0794C27.5729 40.5971 27.7803 41.0918 28.1444 41.4598C28.5085 41.8279 29.0009 42.0406 29.5185 42.0534C30.0872 42.0733 30.6434 41.8832 31.0809 41.5192L30.6743 40.9055C30.3595 41.1577 29.9696 41.298 29.5663 41.304C29.2923 41.3271 29.0202 41.2426 28.8074 41.0685C28.5947 40.8944 28.458 40.6444 28.4264 40.3713H31.2562C31.2642 40.2678 31.2721 40.1641 31.2721 40.0525C31.2642 38.8648 30.5308 38.0517 29.4627 38.0517ZM29.4467 38.7931C29.6971 38.7882 29.9392 38.8828 30.12 39.0561C30.3008 39.2294 30.4055 39.4674 30.4112 39.7177H28.4344C28.4489 39.4619 28.563 39.222 28.7521 39.0492C28.9413 38.8764 29.1906 38.7845 29.4467 38.7931ZM50.2439 40.0525V36.6169H49.4149V38.6097C49.2734 38.4274 49.0902 38.2816 48.8808 38.1845C48.6714 38.0874 48.4418 38.0419 48.2112 38.0517C47.6975 38.0769 47.2132 38.2987 46.8585 38.6712C46.5038 39.0436 46.306 39.5382 46.306 40.0526C46.306 40.5669 46.5038 41.0615 46.8585 41.434C47.2132 41.8064 47.6975 42.0282 48.2112 42.0534C48.4418 42.0632 48.6714 42.0177 48.8809 41.9206C49.0903 41.8235 49.2734 41.6777 49.4149 41.4953V41.9577H50.2439V40.0525ZM51.6258 41.4055C51.6773 41.4052 51.7284 41.4153 51.7758 41.4352C51.8215 41.4543 51.863 41.4818 51.8984 41.5164C51.9334 41.551 51.9614 41.5919 51.9809 41.6371C52.0008 41.6835 52.0111 41.7335 52.0111 41.784C52.0111 41.8345 52.0008 41.8845 51.9809 41.9309C51.9613 41.9759 51.9333 42.0167 51.8984 42.0511C51.8629 42.0857 51.8214 42.1134 51.7758 42.1327C51.7284 42.153 51.6774 42.1633 51.6258 42.163C51.55 42.1637 51.4756 42.1421 51.412 42.1009C51.3484 42.0596 51.2983 42.0005 51.2681 41.9309C51.2482 41.8845 51.2379 41.8345 51.2379 41.784C51.2379 41.7335 51.2482 41.6835 51.2681 41.6371C51.2875 41.592 51.3154 41.551 51.3503 41.5164C51.3855 41.4816 51.4273 41.454 51.4732 41.4352C51.5216 41.4152 51.5735 41.4051 51.6258 41.4055ZM51.6258 42.0794C51.6651 42.0797 51.7041 42.0718 51.7401 42.0562C51.7747 42.0412 51.8062 42.0198 51.8329 41.9931C51.8879 41.9375 51.9188 41.8624 51.9188 41.7842C51.9188 41.706 51.8879 41.6309 51.8329 41.5753C51.8062 41.5487 51.7747 41.5275 51.7401 41.5127C51.704 41.4974 51.6651 41.4896 51.6258 41.49C51.5859 41.4897 51.5463 41.4974 51.5094 41.5127C51.4742 41.5272 51.4422 41.5485 51.4152 41.5753C51.3601 41.6309 51.3292 41.706 51.3292 41.7842C51.3292 41.8624 51.3601 41.9375 51.4152 41.9931C51.4422 42.02 51.4742 42.0414 51.5094 42.0562C51.5462 42.0718 51.5858 42.0797 51.6258 42.0794ZM51.6481 41.6069C51.6854 41.6045 51.7224 41.6152 51.7526 41.6371C51.7647 41.647 51.7742 41.6596 51.7806 41.6739C51.787 41.6881 51.7899 41.7037 51.7892 41.7193C51.7897 41.7326 51.7873 41.7459 51.7823 41.7583C51.7772 41.7707 51.7696 41.7819 51.76 41.7911C51.7369 41.8116 51.7077 41.8239 51.6769 41.826L51.792 41.9587H51.702L51.5953 41.8269H51.5609V41.9587H51.4857V41.6069H51.6481ZM51.5609 41.6729V41.7666H51.6473C51.6638 41.7674 51.6803 41.7634 51.6946 41.7549C51.7004 41.7511 51.7051 41.7457 51.7082 41.7395C51.7113 41.7332 51.7127 41.7262 51.7122 41.7193C51.7126 41.7124 51.7112 41.7056 51.7081 41.6995C51.705 41.6933 51.7003 41.6881 51.6946 41.6844C51.6803 41.676 51.6638 41.672 51.6473 41.6729H51.5609ZM47.159 40.0525C47.1719 39.8276 47.2503 39.6115 47.3845 39.4307C47.5188 39.2499 47.703 39.1123 47.9145 39.0349C48.126 38.9576 48.3555 38.9438 48.5748 38.9953C48.794 39.0468 48.9934 39.1614 49.1483 39.3249C49.3032 39.4883 49.4068 39.6935 49.4465 39.9152C49.4862 40.1369 49.4601 40.3653 49.3715 40.5724C49.2829 40.7794 49.1356 40.956 48.9478 41.0803C48.7601 41.2047 48.54 41.2713 48.3148 41.2721C48.157 41.2742 48.0004 41.2437 47.855 41.1823C47.7095 41.1209 47.5784 41.03 47.4698 40.9154C47.3612 40.8009 47.2775 40.665 47.224 40.5165C47.1706 40.368 47.1484 40.21 47.159 40.0525ZM19.1637 40.0525V38.1474H18.3346V38.6097C18.1931 38.4274 18.01 38.2816 17.8006 38.1845C17.5912 38.0874 17.3616 38.0419 17.131 38.0517C16.6173 38.0769 16.133 38.2987 15.7783 38.6712C15.4237 39.0437 15.2259 39.5383 15.2259 40.0526C15.2259 40.5669 15.4237 41.0615 15.7783 41.4339C16.133 41.8064 16.6173 42.0282 17.131 42.0534C17.3616 42.0632 17.5912 42.0177 17.8006 41.9206C18.01 41.8235 18.1931 41.6777 18.3346 41.4953V41.9577H19.1637V40.0525ZM16.0788 40.0525C16.0917 39.8276 16.1701 39.6115 16.3043 39.4307C16.4386 39.2499 16.6228 39.1123 16.8343 39.0349C17.0458 38.9576 17.2753 38.9438 17.4946 38.9953C17.7138 39.0468 17.9131 39.1614 18.068 39.3249C18.223 39.4883 18.3266 39.6935 18.3663 39.9152C18.406 40.1369 18.3799 40.3653 18.2913 40.5724C18.2027 40.7794 18.0554 40.956 17.8676 41.0803C17.6799 41.2047 17.4598 41.2713 17.2346 41.2721C17.0768 41.2742 16.9202 41.2437 16.7747 41.1823C16.6293 41.1209 16.4982 41.03 16.3896 40.9154C16.281 40.8009 16.1973 40.665 16.1438 40.5165C16.0903 40.368 16.0682 40.21 16.0788 40.0525Z" fill="#231F20"/>
<path d="M35.539 9.10913H22.9824V31.6736H35.539V9.10913Z" fill="#FF5F00"/>
<path d="M23.7775 20.3921C23.7755 18.219 24.268 16.0739 25.2176 14.1192C26.1672 12.1646 27.549 10.4515 29.2585 9.10986C27.1416 7.44587 24.5991 6.41106 21.9218 6.12371C19.2446 5.83635 16.5404 6.30805 14.1186 7.48488C11.6967 8.66171 9.65476 10.4962 8.22619 12.7787C6.79762 15.0611 6.04004 17.6995 6.04004 20.3921C6.04004 23.0848 6.79762 25.7231 8.22619 28.0056C9.65476 30.288 11.6967 32.1225 14.1186 33.2994C16.5404 34.4762 19.2446 34.9479 21.9218 34.6605C24.5991 34.3732 27.1416 33.3384 29.2585 31.6744C27.549 30.3327 26.1672 28.6197 25.2176 26.665C24.268 24.7103 23.7756 22.5652 23.7775 20.3921Z" fill="#EB001B"/>
<path d="M52.4785 20.3921C52.4786 23.0847 51.7211 25.7231 50.2926 28.0055C48.8641 30.288 46.8223 32.1225 44.4004 33.2993C41.9786 34.4762 39.2745 34.9479 36.5973 34.6605C33.92 34.3732 31.3777 33.3384 29.2607 31.6744C30.9687 30.3313 32.3495 28.618 33.2989 26.6637C34.2484 24.7093 34.7417 22.5649 34.7417 20.3921C34.7417 18.2193 34.2484 16.0749 33.2989 14.1206C32.3495 12.1662 30.9687 10.4529 29.2607 9.10986C31.3777 7.44587 33.92 6.41106 36.5973 6.1237C39.2745 5.83635 41.9786 6.30806 44.4004 7.4849C46.8223 8.66175 48.8641 10.4962 50.2926 12.7787C51.7211 15.0612 52.4786 17.6995 52.4785 20.3921Z" fill="#F79E1B"/>
<path d="M51.1035 29.284V28.8221H51.2898V28.728H50.8154V28.8221H51.0018V29.284H51.1035ZM52.0246 29.284V28.7271H51.8791L51.7119 29.1102L51.5446 28.7271H51.3991V29.284H51.5018V28.8639L51.6586 29.2261H51.7651L51.9219 28.863V29.284H52.0246Z" fill="#F79E1B"/>
</svg>
