<svg width="48" height="48" viewBox="0 0 48 48" fill="none" xmlns="http://www.w3.org/2000/svg">
<circle opacity="0.1" cx="20" cy="28" r="20" fill="#7984C0"/>
<g clip-path="url(#clip0_2447_8830)">
<path d="M36.8409 13.6539C37.4513 14.2642 37.4513 15.2536 36.8409 15.8636L26.3588 26.3461C25.7484 26.9562 24.7593 26.9562 24.149 26.3461L19.1591 21.3559C18.5487 20.7458 18.5487 19.7565 19.1591 19.1464C19.7691 18.5361 20.7585 18.5361 21.3685 19.1464L25.2537 23.0316L34.6312 13.6539C35.2415 13.0438 36.2309 13.0438 36.8409 13.6539V13.6539ZM48 20C48 31.055 39.0535 40 28 40C16.945 40 8 31.0535 8 20C8 8.94501 16.9465 0 28 0C39.055 0 48 8.94653 48 20ZM44.875 20C44.875 10.6723 37.3265 3.125 28 3.125C18.6723 3.125 11.125 10.6735 11.125 20C11.125 29.3277 18.6735 36.875 28 36.875C37.3277 36.875 44.875 29.3265 44.875 20Z" fill="#7984C0"/>
</g>
<defs>
<clipPath id="clip0_2447_8830">
<rect width="40" height="40" fill="white" transform="translate(8)"/>
</clipPath>
</defs>
</svg>
