<svg width="100" height="20" viewBox="0 0 100 20" fill="none" xmlns="http://www.w3.org/2000/svg">
<mask id="mask0_3365_8866" style="mask-type:alpha" maskUnits="userSpaceOnUse" x="0" y="0" width="100" height="20">
<g clip-path="url(#clip0_3365_8866)">
<path d="M10.7762 13.1081L10.0015 12.6396L9.22592 13.1068L7.11965 14.3756L7.67746 11.9821L7.88287 11.1007L7.19888 10.508L5.33634 8.89413L7.78514 8.68626L8.68562 8.60982L9.03891 7.77802L9.99925 5.5169L10.9605 7.78524L11.3134 8.61808L12.2147 8.69459L14.6635 8.90246L12.801 10.5163L12.117 11.109L12.3224 11.9904L12.8793 14.3801L10.7762 13.1081ZM15.8599 7.86588L15.8593 7.86633L15.8599 7.86588ZM14.2346 15.1998L14.2342 15.1996L14.2346 15.1998ZM9.3855 4.06857C9.38549 4.06855 9.38548 4.06853 9.38548 4.06852L9.3855 4.06857Z" fill="#EFF0F2" stroke="#7984C0" stroke-width="3"/>
</g>
<g clip-path="url(#clip1_3365_8866)">
<path d="M49.9999 14.3916L53.4583 16.4833C54.0916 16.8666 54.8666 16.3 54.6999 15.5833L53.7833 11.65L56.8416 8.99997C57.3999 8.51663 57.0999 7.59997 56.3666 7.54163L52.3416 7.19997L50.7666 3.4833C50.4833 2.8083 49.5166 2.8083 49.2333 3.4833L47.6583 7.19163L43.6333 7.5333C42.8999 7.59163 42.5999 8.5083 43.1583 8.99163L46.2166 11.6416L45.2999 15.575C45.1333 16.2916 45.9083 16.8583 46.5416 16.475L49.9999 14.3916Z" fill="#EFF0F2"/>
</g>
<g clip-path="url(#clip2_3365_8866)">
<path d="M29.9999 14.3916L33.4583 16.4833C34.0916 16.8666 34.8666 16.3 34.6999 15.5833L33.7833 11.65L36.8416 8.99997C37.3999 8.51663 37.0999 7.59997 36.3666 7.54163L32.3416 7.19997L30.7666 3.4833C30.4833 2.8083 29.5166 2.8083 29.2333 3.4833L27.6583 7.19163L23.6333 7.5333C22.8999 7.59163 22.5999 8.5083 23.1583 8.99163L26.2166 11.6416L25.2999 15.575C25.1333 16.2916 25.9083 16.8583 26.5416 16.475L29.9999 14.3916Z" fill="#EFF0F2"/>
</g>
<g clip-path="url(#clip3_3365_8866)">
<path d="M69.9999 14.3916L73.4583 16.4833C74.0916 16.8666 74.8666 16.3 74.6999 15.5833L73.7833 11.65L76.8416 8.99997C77.3999 8.51663 77.0999 7.59997 76.3666 7.54163L72.3416 7.19997L70.7666 3.4833C70.4833 2.8083 69.5166 2.8083 69.2333 3.4833L67.6583 7.19163L63.6333 7.5333C62.8999 7.59163 62.5999 8.5083 63.1583 8.99163L66.2166 11.6416L65.2999 15.575C65.1333 16.2916 65.9083 16.8583 66.5416 16.475L69.9999 14.3916Z" fill="#EFF0F2"/>
</g>
<g clip-path="url(#clip4_3365_8866)">
<path d="M89.9999 14.3916L93.4583 16.4833C94.0916 16.8666 94.8666 16.3 94.6999 15.5833L93.7833 11.65L96.8416 8.99997C97.3999 8.51663 97.0999 7.59997 96.3666 7.54163L92.3416 7.19997L90.7666 3.4833C90.4833 2.8083 89.5166 2.8083 89.2333 3.4833L87.6583 7.19163L83.6333 7.5333C82.8999 7.59163 82.5999 8.5083 83.1583 8.99163L86.2166 11.6416L85.2999 15.575C85.1333 16.2916 85.9083 16.8583 86.5416 16.475L89.9999 14.3916Z" fill="#EFF0F2"/>
</g>
</mask>
<g mask="url(#mask0_3365_8866)">
<rect width="100" height="20" fill="#7984C0"/>
<g clip-path="url(#clip5_3365_8866)">
<path d="M16.375 7.53333L12.3416 7.18333L10.7666 3.475C10.4833 2.8 9.51663 2.8 9.2333 3.475L7.65829 7.19167L3.63327 7.53333C2.89994 7.59167 2.59994 8.50833 3.15827 8.99167L6.21662 11.6417L5.29995 15.575C5.13328 16.2917 5.90828 16.8583 6.54162 16.475L9.99997 14.3917L13.4583 16.4833C14.0916 16.8667 14.8667 16.3 14.7 15.5833L13.7833 11.6417L16.8417 8.99167C17.4 8.50833 17.1083 7.59167 16.375 7.53333V7.53333ZM9.99997 12.8333L6.86662 14.725L7.69996 11.1583L4.93328 8.75833L8.58329 8.44167L9.99997 5.08333L11.425 8.45L15.075 8.76667L12.3083 11.1667L13.1416 14.7333L9.99997 12.8333Z" fill="#7984C0"/>
</g>
<g clip-path="url(#clip6_3365_8866)">
<path d="M36.3769 7.53333L32.3436 7.18333L30.7686 3.475C30.4853 2.8 29.5186 2.8 29.2352 3.475L27.6602 7.19167L23.6352 7.53333C22.9019 7.59167 22.6019 8.50833 23.1602 8.99167L26.2186 11.6417L25.3019 15.575C25.1352 16.2917 25.9102 16.8583 26.5436 16.475L30.0019 14.3917L33.4603 16.4833C34.0936 16.8667 34.8686 16.3 34.7019 15.5833L33.7853 11.6417L36.8436 8.99167C37.4019 8.50833 37.1103 7.59167 36.3769 7.53333V7.53333ZM30.0019 12.8333L26.8686 14.725L27.7019 11.1583L24.9352 8.75833L28.5852 8.44167L30.0019 5.08333L31.4269 8.45L35.0769 8.76667L32.3103 11.1667L33.1436 14.7333L30.0019 12.8333Z" fill="#7984C0"/>
</g>
<g clip-path="url(#clip7_3365_8866)">
<path d="M56.375 7.53333L52.3416 7.18333L50.7666 3.475C50.4833 2.8 49.5166 2.8 49.2333 3.475L47.6583 7.19167L43.6333 7.53333C42.8999 7.59167 42.5999 8.50833 43.1583 8.99167L46.2166 11.6417L45.2999 15.575C45.1333 16.2917 45.9083 16.8583 46.5416 16.475L50 14.3917L53.4583 16.4833C54.0916 16.8667 54.8667 16.3 54.7 15.5833L53.7833 11.6417L56.8417 8.99167C57.4 8.50833 57.1083 7.59167 56.375 7.53333V7.53333ZM50 12.8333L46.8666 14.725L47.7 11.1583L44.9333 8.75833L48.5833 8.44167L50 5.08333L51.425 8.45L55.075 8.76667L52.3083 11.1667L53.1416 14.7333L50 12.8333Z" fill="#7984C0"/>
</g>
<g clip-path="url(#clip8_3365_8866)">
<path d="M76.375 7.53333L72.3416 7.18333L70.7666 3.475C70.4833 2.8 69.5166 2.8 69.2333 3.475L67.6583 7.19167L63.6333 7.53333C62.8999 7.59167 62.5999 8.50833 63.1583 8.99167L66.2166 11.6417L65.2999 15.575C65.1333 16.2917 65.9083 16.8583 66.5416 16.475L70 14.3917L73.4583 16.4833C74.0916 16.8667 74.8667 16.3 74.7 15.5833L73.7833 11.6417L76.8417 8.99167C77.4 8.50833 77.1083 7.59167 76.375 7.53333V7.53333ZM70 12.8333L66.8666 14.725L67.7 11.1583L64.9333 8.75833L68.5833 8.44167L70 5.08333L71.425 8.45L75.075 8.76667L72.3083 11.1667L73.1416 14.7333L70 12.8333Z" fill="#7984C0"/>
</g>
<g clip-path="url(#clip9_3365_8866)">
<path d="M96.375 7.53333L92.3416 7.18333L90.7666 3.475C90.4833 2.8 89.5166 2.8 89.2333 3.475L87.6583 7.19167L83.6333 7.53333C82.8999 7.59167 82.5999 8.50833 83.1583 8.99167L86.2166 11.6417L85.2999 15.575C85.1333 16.2917 85.9083 16.8583 86.5416 16.475L90 14.3917L93.4583 16.4833C94.0916 16.8667 94.8667 16.3 94.7 15.5833L93.7833 11.6417L96.8417 8.99167C97.4 8.50833 97.1083 7.59167 96.375 7.53333V7.53333ZM90 12.8333L86.8666 14.725L87.7 11.1583L84.9333 8.75833L88.5833 8.44167L90 5.08333L91.425 8.45L95.075 8.76667L92.3083 11.1667L93.1416 14.7333L90 12.8333Z" fill="#7984C0"/>
</g>
</g>
<defs>
<clipPath id="clip0_3365_8866">
<rect width="20" height="20" fill="white"/>
</clipPath>
<clipPath id="clip1_3365_8866">
<rect width="20" height="20" fill="white" transform="translate(40)"/>
</clipPath>
<clipPath id="clip2_3365_8866">
<rect width="20" height="20" fill="white" transform="translate(20)"/>
</clipPath>
<clipPath id="clip3_3365_8866">
<rect width="20" height="20" fill="white" transform="translate(60)"/>
</clipPath>
<clipPath id="clip4_3365_8866">
<rect width="20" height="20" fill="white" transform="translate(80)"/>
</clipPath>
<clipPath id="clip5_3365_8866">
<rect width="20.0001" height="20" fill="white"/>
</clipPath>
<clipPath id="clip6_3365_8866">
<rect width="20.0001" height="20" fill="white" transform="translate(20.002)"/>
</clipPath>
<clipPath id="clip7_3365_8866">
<rect width="20.0001" height="20" fill="white" transform="translate(40)"/>
</clipPath>
<clipPath id="clip8_3365_8866">
<rect width="20.0001" height="20" fill="white" transform="translate(60)"/>
</clipPath>
<clipPath id="clip9_3365_8866">
<rect width="20.0001" height="20" fill="white" transform="translate(80)"/>
</clipPath>
</defs>
</svg>
