<svg width="125" height="124" viewBox="0 0 125 124" fill="none" xmlns="http://www.w3.org/2000/svg">
<circle cx="62.5" cy="62" r="61.5" fill="white" stroke="#EFF0F2"/>
<circle opacity="0.1" cx="54" cy="70" r="20" fill="#7984C0"/>
<g clip-path="url(#clip0_2444_3757)">
<path d="M73.75 56.6875H57.1846V50.2633C57.1846 47.43 59.5678 45.125 62.4971 45.125C65.4264 45.125 67.8096 47.43 67.8096 50.2633V53.25H70.9346V50.2633C70.9346 45.7069 67.1495 42 62.4971 42C57.8447 42 54.0596 45.7069 54.0596 50.2633V56.6875H51.25C48.6653 56.6875 46.5625 58.7903 46.5625 61.375V77.3125C46.5625 79.8972 48.6653 82 51.25 82H73.75C76.3347 82 78.4375 79.8972 78.4375 77.3125V61.375C78.4375 58.7903 76.3347 56.6875 73.75 56.6875ZM75.3125 77.3125C75.3125 78.1741 74.6116 78.875 73.75 78.875H51.25C50.3884 78.875 49.6875 78.1741 49.6875 77.3125V61.375C49.6875 60.5134 50.3884 59.8125 51.25 59.8125H73.75C74.6116 59.8125 75.3125 60.5134 75.3125 61.375V77.3125Z" fill="#7984C0"/>
<path d="M62.5 64.3438C60.9035 64.3438 59.6094 65.6379 59.6094 67.2344C59.6094 68.2538 60.1375 69.1492 60.9346 69.6639V73.0938C60.9346 73.9566 61.6341 74.6562 62.4971 74.6562C63.36 74.6562 64.0596 73.9566 64.0596 73.0938V69.6676C64.8599 69.1535 65.3906 68.2562 65.3906 67.2344C65.3906 65.6379 64.0965 64.3438 62.5 64.3438Z" fill="#7984C0"/>
</g>
<defs>
<clipPath id="clip0_2444_3757">
<rect width="40" height="40" fill="white" transform="translate(42.5 42)"/>
</clipPath>
</defs>
</svg>
