<svg width="125" height="124" viewBox="0 0 125 124" fill="none" xmlns="http://www.w3.org/2000/svg">
<circle cx="62.5" cy="62" r="61.5" fill="white" stroke="#EFF0F2"/>
<circle opacity="0.1" cx="54" cy="70" r="20" fill="#7984C0"/>
<g clip-path="url(#clip0_2424_6194)">
<path d="M80.3573 56.1741C79.8295 54.5397 80.0545 52.0864 78.6827 50.1921C77.3 48.2829 74.8952 47.7402 73.5373 46.7471C72.1938 45.7644 70.9438 43.6261 68.6837 42.8886C66.4873 42.1719 64.2414 43.1444 62.5 43.1444C60.7588 43.1444 58.513 42.1716 56.3163 42.8885C54.0566 43.6258 52.8056 45.7647 51.4629 46.7469C50.1065 47.7388 47.6999 48.2829 46.3175 50.1919C44.9468 52.0846 45.1695 54.5436 44.6427 56.174C44.1413 57.7258 42.5 59.5883 42.5 62.0001C42.5 64.4135 44.1394 66.2687 44.6427 67.8262C45.1705 69.4605 44.9455 71.9139 46.3173 73.8082C47.6999 75.7175 50.1046 76.2601 51.4627 77.2533C52.806 78.2358 54.0562 80.3743 56.3163 81.1117C58.5112 81.8279 60.7606 80.8558 62.5 80.8558C64.237 80.8558 66.4916 81.8269 68.6837 81.1118C70.9434 80.3744 72.1937 78.2361 73.5371 77.2534C74.8935 76.2615 77.3001 75.7173 78.6825 73.8084C80.0533 71.9156 79.8304 69.4569 80.3573 67.8262C80.8588 66.2744 82.5 64.4119 82.5 62.0001C82.5 59.5869 80.861 57.7322 80.3573 56.1741V56.1741ZM77.3838 66.8653C76.7686 68.7696 76.9298 70.9008 76.1516 71.9753C75.363 73.0641 73.2913 73.5615 71.6926 74.7308C70.1114 75.8872 69.0032 77.7202 67.7143 78.1408C66.4949 78.5387 64.5077 77.7307 62.5001 77.7307C60.4777 77.7307 58.511 78.5404 57.2858 78.1408C55.997 77.7202 54.8904 75.8884 53.3075 74.7308C51.7183 73.5685 49.6347 73.0609 48.8484 71.9751C48.0727 70.9042 48.2278 68.7583 47.6163 66.8654C47.017 65.0108 45.625 63.4049 45.625 62.0001C45.625 60.594 47.0157 58.9937 47.6162 57.135C48.2314 55.2308 48.0702 53.0994 48.8484 52.025C49.6365 50.9369 51.7098 50.4379 53.3075 49.2694C54.8937 48.1094 55.9949 46.2807 57.2856 45.8595C58.504 45.462 60.4977 46.2696 62.4999 46.2696C64.5259 46.2696 66.4877 45.4593 67.7142 45.8595C69.0028 46.28 70.1104 48.1125 71.6926 49.2695C73.2816 50.4318 75.3653 50.9394 76.1516 52.0251C76.9274 53.0962 76.7715 55.24 77.3837 57.1348V57.1349C77.983 58.9895 79.375 60.5954 79.375 62.0001C79.375 63.4063 77.9843 65.0066 77.3838 66.8653V66.8653ZM69.6987 56.9849C70.3089 57.5951 70.3089 58.5844 69.6987 59.1946L61.8779 67.0154C61.2677 67.6256 60.2783 67.6255 59.6681 67.0154L55.3014 62.6487C54.6912 62.0384 54.6911 61.0491 55.3013 60.439C55.9116 59.8288 56.901 59.8287 57.511 60.439L60.773 63.7008L67.4888 56.985C68.0991 56.3747 69.0884 56.3747 69.6987 56.9849V56.9849Z" fill="#7984C0"/>
</g>
<defs>
<clipPath id="clip0_2424_6194">
<rect width="40" height="40" fill="white" transform="translate(42.5 42)"/>
</clipPath>
</defs>
</svg>
