<svg width="125" height="124" viewBox="0 0 125 124" fill="none" xmlns="http://www.w3.org/2000/svg">
<circle cx="62.5" cy="62" r="61.5" fill="white" stroke="#EFF0F2"/>
<circle opacity="0.1" cx="54" cy="70" r="20" fill="#7984C0"/>
<g clip-path="url(#clip0_2444_3770)">
<path d="M80.9375 52.7812C81.8005 52.7812 82.5 52.0817 82.5 51.2188V48.25C82.5 44.8038 79.6962 42 76.25 42H48.75C45.3038 42 42.5 44.8038 42.5 48.25V75.75C42.5 79.1962 45.3038 82 48.75 82H76.25C78.9445 82 81.3276 80.2835 82.1798 77.7288C82.4529 76.9102 82.0106 76.0252 81.192 75.7522C80.3734 75.4789 79.4884 75.9214 79.2154 76.7399C78.7894 78.017 77.5977 78.875 76.25 78.875H48.75C47.0269 78.875 45.625 77.4731 45.625 75.75V57.3572C46.1139 57.5305 46.6399 57.625 47.1875 57.625H76.25C77.9731 57.625 79.375 59.0269 79.375 60.75V63.6406H74.1406C67.9205 63.8988 67.9253 72.7597 74.1406 73.0156H80.9375C81.8005 73.0156 82.5 72.316 82.5 71.4531V60.75C82.5 57.3038 79.6962 54.5 76.25 54.5H47.1875C45.1141 54.4139 45.1158 51.4604 47.1875 51.375H74.6875C76.7606 51.2925 76.7591 48.3318 74.6875 48.25H47.1875C46.6399 48.25 46.1139 48.3444 45.625 48.5177V48.25C45.625 46.5269 47.0269 45.125 48.75 45.125H76.25C77.9731 45.125 79.375 46.5269 79.375 48.25V51.2188C79.375 52.0817 80.0745 52.7812 80.9375 52.7812V52.7812ZM79.375 69.8906H74.1406C72.0673 69.8045 72.0688 66.8509 74.1406 66.7656H79.375V69.8906Z" fill="#7984C0"/>
</g>
<defs>
<clipPath id="clip0_2444_3770">
<rect width="40" height="40" fill="white" transform="translate(42.5 42)"/>
</clipPath>
</defs>
</svg>
