<svg width="125" height="124" viewBox="0 0 125 124" fill="none" xmlns="http://www.w3.org/2000/svg">
<circle cx="62.5" cy="62" r="61.5" fill="white" stroke="#EFF0F2"/>
<circle opacity="0.1" cx="54" cy="70" r="20" fill="#7984C0"/>
<g clip-path="url(#clip0_2444_3804)">
<path d="M82.5 62C82.5 62.7572 82.4572 63.5202 82.3727 64.2677C82.2259 65.567 80.6384 66.1202 79.7152 65.1971L75.4133 60.8952C74.803 60.2849 74.803 59.2956 75.4133 58.6855C76.0234 58.0752 77.0128 58.0752 77.623 58.6855L79.2968 60.3593C78.4921 51.9633 71.418 45.125 62.5 45.125C53.1206 45.125 45.625 52.7352 45.625 62C45.625 71.3276 53.1737 78.875 62.5 78.875C68.6836 78.875 74.3652 75.4984 77.3278 70.063C77.7407 69.3052 78.6897 69.0259 79.4475 69.4388C80.2052 69.8517 80.4846 70.8008 80.0716 71.5584C76.5613 77.9991 69.8283 82 62.5 82C51.4451 82 42.5 73.0534 42.5 62C42.5 50.9565 51.4559 42 62.5 42C73.5548 42 82.5 50.9466 82.5 62V62ZM62.5 48.25C61.637 48.25 60.9375 48.9495 60.9375 49.8125V62C60.9375 62.4144 61.1021 62.8119 61.3952 63.1048L67.8585 69.5682C68.4687 70.1784 69.458 70.1784 70.0683 69.5682C70.6784 68.958 70.6784 67.9687 70.0683 67.3585L64.0625 61.3528V49.8125C64.0625 48.9495 63.363 48.25 62.5 48.25Z" fill="#7984C0"/>
</g>
<defs>
<clipPath id="clip0_2444_3804">
<rect width="40" height="40" fill="white" transform="translate(42.5 42)"/>
</clipPath>
</defs>
</svg>
