<svg width="48" height="48" viewBox="0 0 48 48" fill="none" xmlns="http://www.w3.org/2000/svg">
<path d="M19.6199 16.4895L17.2109 31.4806H21.0614L23.4689 16.4895H19.6199ZM31.2344 22.596C29.8888 21.9315 29.064 21.4831 29.064 20.8035C29.0804 20.1855 29.7615 19.5525 31.2825 19.5525C32.5334 19.521 33.4529 19.815 34.1505 20.1075L34.4999 20.2635L35.0234 17.127C34.2628 16.833 33.0569 16.5091 31.5674 16.5091C27.7649 16.5091 25.0874 18.4861 25.0708 21.3136C25.0394 23.4002 26.9878 24.5581 28.4459 25.2526C29.9354 25.9652 30.4424 26.4271 30.4424 27.0602C30.426 28.0321 29.238 28.4806 28.1295 28.4806C26.5936 28.4806 25.7685 28.2496 24.5161 27.708L24.009 27.4771L23.4706 30.7366C24.3751 31.1387 26.0385 31.4926 27.7651 31.5107C31.8061 31.5107 34.4356 29.5636 34.4687 26.5502C34.4818 24.8971 33.4544 23.631 31.2344 22.596ZM44.8949 16.5359H41.9158C40.9978 16.5359 40.3003 16.7999 39.9028 17.742L34.1832 31.4806H38.2242L39.3372 28.5061H43.8583L44.4357 31.4926H47.9998L44.8949 16.5359ZM40.4579 25.5043C40.5359 25.5119 42.0089 20.6488 42.0089 20.6488L43.1819 25.5043C43.1819 25.5043 41.2184 25.5043 40.4579 25.5043ZM13.9934 16.4895L10.2209 26.6746L9.80993 24.666C9.11238 22.3484 6.92547 19.83 4.48486 18.579L7.93938 31.4656H12.0135L18.0675 16.4911H13.9934V16.4895Z" fill="#2394BC"/>
<path d="M8.54104 18.4229C8.24705 17.2798 7.30947 16.5089 6.03611 16.4924H0.0615292L0 16.7698C4.66059 17.9188 8.57246 21.4542 9.84154 24.7798L8.54104 18.4229Z" fill="#EFC75E"/>
</svg>
